Coordinates
version=1
nRows=8
nColumns=40
inDegrees=yes

Units are S.I. units (second, meters, Newtons, ...)
If the header above contains a line with 'inDegrees', this indicates whether rotational values are in degrees (yes) or radians (no).

endheader
time	pelvis_tilt	pelvis_list	pelvis_rotation	pelvis_tx	pelvis_ty	pelvis_tz	hip_flexion_r	hip_adduction_r	hip_rotation_r	knee_angle_r	knee_angle_r_beta	ankle_angle_r	subtalar_angle_r	mtp_angle_r	hip_flexion_l	hip_adduction_l	hip_rotation_l	knee_angle_l	knee_angle_l_beta	ankle_angle_l	subtalar_angle_l	mtp_angle_l	lumbar_extension	lumbar_bending	lumbar_rotation	arm_flex_r	arm_add_r	arm_rot_r	elbow_flex_r	pro_sup_r	wrist_flex_r	wrist_dev_r	arm_flex_l	arm_add_l	arm_rot_l	elbow_flex_l	pro_sup_l	wrist_flex_l	wrist_dev_l
      2.98666667	      8.64427125	     -4.93353841	      9.26713857	      0.37260003	      0.88780483	     -0.32254628	      1.16924563	      5.85531454	    -12.30319710	     19.39612759	      0.33852629	     14.60745018	      0.00000000	      0.00000000	     12.04488487	     -9.83411764	     -1.64642059	     64.89350003	      1.13260524	     18.17115207	      0.00000000	      0.00000000	    -19.43676947	     12.11682974	     -3.08093316	      0.00000000	    -11.38836400	      0.00000000	     74.96059004	     45.02653404	      0.00000000	      0.00000000	      0.00000000	    -11.38836400	      0.00000000	     74.96059004	     45.02653404	      0.00000000	      0.00000000
      2.99333333	      8.61964947	     -4.73390229	      9.14021927	      0.38065846	      0.88883007	     -0.32248018	      0.28444048	      5.77140378	    -12.21975880	     18.86553328	      0.32926567	     14.64935980	      0.00000000	      0.00000000	     12.98993734	     -9.40853250	     -1.88479455	     64.10803330	      1.11889626	     18.38650592	      0.00000000	      0.00000000	    -19.50263065	     11.87675622	     -2.95410640	      0.00000000	    -11.39284019	      0.00000000	     74.96068602	     45.02635574	      0.00000000	      0.00000000	      0.00000000	    -11.39284019	      0.00000000	     74.96068602	     45.02635574	      0.00000000	      0.00000000
      3.00000000	      8.58075982	     -4.71196582	      8.97937144	      0.38847647	      0.88958385	     -0.32235741	     -0.37635584	      5.82408318	    -12.33255947	     18.69819519	      0.32634507	     14.66914542	      0.00000000	      0.00000000	     14.01492471	     -9.22389438	     -2.14290035	     63.31413865	      1.10504018	     18.45915959	      0.00000000	      0.00000000	    -19.72056165	     11.90713143	     -2.90688736	      0.00000000	    -11.39375043	      0.00000000	     74.96070552	     45.02631963	      0.00000000	      0.00000000	      0.00000000	    -11.39375043	      0.00000000	     74.96070552	     45.02631963	      0.00000000	      0.00000000
      3.00666667	      9.04614095	     -4.39784944	      8.80796051	      0.39690615	      0.89124511	     -0.32230205	     -2.16481552	      5.78308985	    -11.87469719	     17.43089459	      0.30422650	     14.62488240	      0.00000000	      0.00000000	     14.12577764	     -8.79596466	     -2.54373301	     62.03973430	      1.08279763	     19.53967739	      0.00000000	      0.00000000	    -20.30230558	     11.55679233	     -2.22951057	      0.00000000	    -11.41183405	      0.00000000	     74.96109199	     45.02561042	      0.00000000	      0.00000000	      0.00000000	    -11.41183405	      0.00000000	     74.96109199	     45.02561042	      0.00000000	      0.00000000
      3.01333333	      8.96326826	     -4.42891202	      8.61975186	      0.40475610	      0.89183168	     -0.32226690	     -2.76997748	      5.84416267	    -12.01837953	     17.26980351	      0.30141493	     14.63883064	      0.00000000	      0.00000000	     15.11307218	     -8.65505428	     -2.79138308	     61.00586126	      1.06475314	     19.60624798	      0.00000000	      0.00000000	    -20.44584172	     11.63010884	     -2.18490189	      0.00000000	    -11.41287260	      0.00000000	     74.96111413	     45.02557017	      0.00000000	      0.00000000	      0.00000000	    -11.41287260	      0.00000000	     74.96111413	     45.02557017	      0.00000000	      0.00000000
      3.02000000	      8.89850412	     -4.41977974	      8.45298017	      0.41273625	      0.89236817	     -0.32222067	     -3.45091985	      5.89301514	    -12.11902680	     17.03497489	      0.29731640	     14.65646461	      0.00000000	      0.00000000	     16.01243596	     -8.49018065	     -3.07081711	     59.86760971	      1.04488690	     19.68474735	      0.00000000	      0.00000000	    -20.51768379	     11.66575842	     -2.11312731	      0.00000000	    -11.41376557	      0.00000000	     74.96113315	     45.02553561	      0.00000000	      0.00000000	      0.00000000	    -11.41376557	      0.00000000	     74.96113315	     45.02553561	      0.00000000	      0.00000000
      3.02666667	      9.55410235	     -4.00076156	      8.17166968	      0.42132940	      0.89414763	     -0.32224187	     -5.56650364	      5.72178902	    -11.53109816	     15.55830253	      0.27154361	     14.53821419	      0.00000000	      0.00000000	     15.62837194	     -7.98021840	     -3.61849372	     58.10850546	      1.01418474	     20.49559337	      0.00000000	      0.00000000	    -21.25321322	     11.17493847	     -1.34003030	      0.00000000	    -11.42519703	      0.00000000	     74.96137643	     45.02509602	      0.00000000	      0.00000000	      0.00000000	    -11.42519703	      0.00000000	     74.96137643	     45.02509602	      0.00000000	      0.00000000
      3.03333333	      9.72316737	     -3.93820317	      7.95248334	      0.42953060	      0.89493376	     -0.32225932	     -6.69250612	      5.75553254	    -11.45931754	     14.93120727	      0.26059873	     14.31359650	      0.00000000	      0.00000000	     16.04834276	     -7.80080840	     -3.97865688	     56.62312464	      0.98825996	     21.07207034	      0.00000000	      0.00000000	    -21.54228711	     11.12928246	     -0.91397070	      0.00000000	    -11.43775461	      0.00000000	     74.96164285	     45.02461998	      0.00000000	      0.00000000	      0.00000000	    -11.43775461	      0.00000000	     74.96164285	     45.02461998	      0.00000000	      0.00000000
